<?xml version="1.0" encoding="UTF-8" standalone="no"?>
<!-- Created with Inkscape (http://www.inkscape.org/) -->

<svg
   width="130.21175mm"
   height="130.75623mm"
   viewBox="0 0 130.21175 130.75623"
   version="1.1"
   id="svg1"
   xml:space="preserve"
   inkscape:version="1.4.2 (f4327f4, 2025-05-13)"
   sodipodi:docname="logoVectorial_white.svg"
   xmlns:inkscape="http://www.inkscape.org/namespaces/inkscape"
   xmlns:sodipodi="http://sodipodi.sourceforge.net/DTD/sodipodi-0.dtd"
   xmlns="http://www.w3.org/2000/svg"
   xmlns:svg="http://www.w3.org/2000/svg"><sodipodi:namedview
     id="namedview1"
     pagecolor="#505050"
     bordercolor="#eeeeee"
     borderopacity="1"
     inkscape:showpageshadow="0"
     inkscape:pageopacity="0"
     inkscape:pagecheckerboard="0"
     inkscape:deskcolor="#505050"
     inkscape:document-units="mm"
     inkscape:zoom="2.0334082"
     inkscape:cx="291.62861"
     inkscape:cy="146.30609"
     inkscape:window-width="1920"
     inkscape:window-height="1009"
     inkscape:window-x="-8"
     inkscape:window-y="-8"
     inkscape:window-maximized="1"
     inkscape:current-layer="layer1" /><defs
     id="defs1" /><g
     inkscape:label="Capa 1"
     inkscape:groupmode="layer"
     id="layer1"
     transform="translate(-39.720385,-83.108164)"><g
       id="g24"><path
         style="fill:none;stroke:#ffffff;stroke-width:2.5;stroke-linecap:round;stroke-dasharray:none"
         d="m 48.763941,117.03346 c 0,0 -19.321563,77.65427 46.003717,90.90334"
         id="path1" /><path
         style="fill:none;stroke:#ffffff;stroke-width:2.5;stroke-linecap:round;stroke-dasharray:none"
         d="m 48.763941,117.03346 c 0,0 0.736057,-4.60037 9.568772,-3.12826 0,0 0.348092,44.90371 39.636704,60.40378 3.138193,0.94799 5.658953,2.41578 7.471103,5.28953"
         id="path2"
         sodipodi:nodetypes="ccsc" /><path
         style="fill:none;stroke:#ffffff;stroke-width:2.5;stroke-linecap:round;stroke-dasharray:none"
         d="m 109.12082,182.91078 c 0,0 14.81319,6.90055 10.58085,17.11338 -4.23234,10.21283 -19.965611,8.09666 -19.965611,8.09666"
         id="path3" /><path
         style="fill:none;stroke:#ffffff;stroke-width:2.5;stroke-linecap:round;stroke-dasharray:none"
         d="m 90.874206,207.04667 c 0,0 -1.166958,5.03047 5.36557,4.93846 6.532524,-0.092 5.817244,-3.69899 5.817244,-3.69899"
         id="path4" /><path
         style="fill:none;stroke:#ffffff;stroke-width:2.5;stroke-linecap:round;stroke-dasharray:none"
         d="m 103.66293,177.41706 c 0,0 0.52859,-0.76565 1.41877,-1.07561 1.03955,-0.36197 2.09862,-0.58738 3.6599,0.40709 0.66881,0.426 1.2316,1.04196 1.65455,1.58636 1.22359,1.57492 1.2088,3.3255 0.57315,5.57382"
         id="path5"
         sodipodi:nodetypes="csssc" /><path
         style="fill:none;stroke:#ffffff;stroke-width:2.5;stroke-linecap:round;stroke-dasharray:none"
         d="m 116.99749,188.64836 -1.52816,6.49941"
         id="path6" /><path
         style="fill:none;stroke:#ffffff;stroke-width:2.5;stroke-linecap:round;stroke-dasharray:none"
         d="m 111.75686,206.99527 1.78031,-5.22297"
         id="path7" /><path
         style="fill:none;stroke:#ffffff;stroke-width:2.5;stroke-linecap:round;stroke-dasharray:none"
         d="m 119.14208,191.56367 c 0,0 4.60792,0.0878 6.9081,-2.39639"
         id="path8" /><path
         style="fill:none;stroke:#ffffff;stroke-width:2.5;stroke-linecap:round;stroke-dasharray:none"
         d="m 115.72838,204.98788 c 0,0 3.14522,4.60505 3.78928,6.62922"
         id="path9" /><path
         style="fill:none;stroke:#ffffff;stroke-width:2.5;stroke-linecap:round;stroke-dasharray:none"
         d="m 79.180083,202.93016 c 0,0 -4.38477,-19.55254 13.928074,-30.78085"
         id="path10" /><path
         style="fill:none;stroke:#ffffff;stroke-width:2.5;stroke-linecap:round;stroke-dasharray:none"
         d="m 90.188734,174.14849 c 0.451211,0 8.00544,5.9189 10.288266,14.45165 1.17926,4.40783 -0.27816,7.74507 -4.513725,7.28814 -1.642044,-0.17714 -4.732482,-1.69292 -7.268108,-3.36272 0,0 -3.58829,1.97816 -4.140334,1.33411"
         id="path11"
         sodipodi:nodetypes="csscc" /><path
         style="fill:none;stroke:#ffffff;stroke-width:2.5;stroke-linecap:round;stroke-dasharray:none"
         d="m 83.149637,165.88543 c 0,0 -0.03583,2.56728 -0.23018,4.9269 -0.244588,2.96959 0.438698,4.19905 -2.706556,5.1363 -1.333965,0.39751 -2.802049,0.24561 -3.11067,0.24561"
         id="path13"
         sodipodi:nodetypes="cssc" /><path
         style="fill:none;stroke:#ffffff;stroke-width:2.5;stroke-linecap:round;stroke-dasharray:none"
         d="m 62.544295,167.51071 c 0,0 -7.063811,3.07107 -3.291506,9.87962 l 3.036245,3.58829"
         id="path14" /><path
         style="fill:none;stroke:#ffffff;stroke-width:2.5;stroke-linecap:round;stroke-dasharray:none"
         d="m 62.330104,135.23749 c 0,0 -2.018688,2.30355 -3.912644,4.01077 -3.248615,2.92831 -1.764323,1.50622 -4.103061,3.51777 -1.66443,1.43158 -3.662324,3.86784 -4.170347,4.62988"
         id="path15"
         sodipodi:nodetypes="cssc" /><path
         style="fill:none;stroke:#ffffff;stroke-width:2.5;stroke-linecap:round;stroke-dasharray:none"
         d="m 62.63636,136.14012 c 0,0 2.136872,-6.40964 3.424978,-9.07785 1.288103,-2.66822 0.552045,-6.71655 -2.484202,-8.6487"
         id="path16" /><path
         style="fill:none;stroke:#ffffff;stroke-width:2.5;stroke-linecap:round;stroke-dasharray:none"
         d="m 46.146058,138.49735 c 0,0 -7.226914,-10.79103 -4.558697,-17.13954 2.668215,-6.34852 6.6001,-1.62519 6.6001,-1.62519"
         id="path17" /><path
         style="fill:none;stroke:#ffffff;stroke-width:2.5;stroke-linecap:round;stroke-dasharray:none"
         d="m 58.332713,113.9052 c 0,0 10.396839,-16.837358 -2.208178,-29.25836 0,0 -6.992565,3.772305 -4.508364,14.077138 0,0 -6.900558,-0.09201 -4.968401,6.624532 1.932156,6.71655 2.116171,11.68495 2.116171,11.68495"
         id="path18" /><path
         style="fill:none;stroke:#ffffff;stroke-width:2.5;stroke-linecap:round;stroke-dasharray:none"
         d="m 59.204486,122.4871 c 0,0 -11.010312,3.21958 -3.17196,10.09561"
         id="path19" /><path
         style="fill:none;stroke:#ffffff;stroke-width:2.5;stroke-linecap:round;stroke-dasharray:none"
         d="m 74.913989,157.99899 c 0,0 2.464263,-5.45066 8.812776,-6.00271 0,0 1.012083,-2.57621 2.852231,-2.85223 0,0 4.903067,1.73128 7.175786,9.40552 1.105312,2.92457 0.685261,5.84386 0.489076,8.87588 -0.162318,2.54526 -0.301363,5.13092 -0.199876,5.17898"
         id="path20"
         sodipodi:nodetypes="cccssc" /><path
         style="fill:none;stroke:#ffffff;stroke-width:2.5;stroke-linecap:round;stroke-dasharray:none"
         d="m 79.03384,193.22365 c 0,0 -5.386962,-0.356 -6.005023,-0.55118"
         id="path21" /><path
         style="fill:none;stroke:#ffffff;stroke-width:2.5;stroke-linecap:round;stroke-dasharray:none"
         d="m 71.944361,198.92356 c 0,0 -2.021748,0.30852 -4.190231,0.70857 -3.619031,0.92976 -6.819633,1.71491 -10.575455,1.27908 -3.975803,-0.5208 -8.896742,-2.04908 -10.806927,-5.48742 0,0 0.276022,-2.39219 2.300185,-3.6803 0,0 -0.276022,-4.9684 1.656134,-7.54461"
         id="path22"
         sodipodi:nodetypes="cssccc" /><path
         style="fill:none;stroke:#ffffff;stroke-width:2.5;stroke-linecap:round;stroke-dasharray:none"
         d="m 57.596653,149.69609 c 0,0 1.876765,20.2144 14.169146,29.53439"
         id="path23"
         sodipodi:nodetypes="cc" /><path
         style="fill:none;stroke:#ffffff;stroke-width:2.5;stroke-linecap:round;stroke-dasharray:none"
         d="m 57.596653,149.69609 c 0,0 3.404275,7.08458 7.268588,9.93681 3.864311,2.85223 6.072489,4.60037 6.164498,8.09665 0.09201,3.49628 -0.73606,8.09665 0.73606,11.50093"
         id="path24" /></g><g
       id="g28"><path
         style="fill:none;stroke:#ffffff;stroke-width:2.5;stroke-linecap:round;stroke-dasharray:none"
         d="m 160.88858,179.9391 c 0,0 19.32156,-77.65427 -46.00372,-90.90334"
         id="path1-5" /><path
         style="fill:none;stroke:#ffffff;stroke-width:2.5;stroke-linecap:round;stroke-dasharray:none"
         d="m 160.88858,179.9391 c 0,0 -0.73606,4.60037 -9.56877,3.12826 0,0 -0.34809,-44.90371 -39.63671,-60.40378 -3.13819,-0.94799 -5.65895,-2.41578 -7.4711,-5.28953"
         id="path2-1"
         sodipodi:nodetypes="ccsc" /><path
         style="fill:none;stroke:#ffffff;stroke-width:2.5;stroke-linecap:round;stroke-dasharray:none"
         d="m 100.5317,114.06178 c 0,0 -14.81319,-6.90055 -10.58085,-17.11338 4.23234,-10.21283 19.96561,-8.09666 19.96561,-8.09666"
         id="path3-7" /><path
         style="fill:none;stroke:#ffffff;stroke-width:2.5;stroke-linecap:round;stroke-dasharray:none"
         d="m 118.77831,89.92589 c 0,0 1.16696,-5.03047 -5.36557,-4.93846 -6.53252,0.092 -5.81724,3.69899 -5.81724,3.69899"
         id="path4-1" /><path
         style="fill:none;stroke:#ffffff;stroke-width:2.5;stroke-linecap:round;stroke-dasharray:none"
         d="m 105.98959,119.5555 c 0,0 -0.52859,0.76565 -1.41877,1.07561 -1.03955,0.36197 -2.09862,0.58738 -3.6599,-0.40709 -0.66881,-0.426 -1.2316,-1.04196 -1.65455,-1.58636 -1.22359,-1.57492 -1.2088,-3.3255 -0.57315,-5.57382"
         id="path5-1"
         sodipodi:nodetypes="csssc" /><path
         style="fill:none;stroke:#ffffff;stroke-width:2.5;stroke-linecap:round;stroke-dasharray:none"
         d="m 92.65503,108.3242 1.52816,-6.49941"
         id="path6-5" /><path
         style="fill:none;stroke:#ffffff;stroke-width:2.5;stroke-linecap:round;stroke-dasharray:none"
         d="m 97.89566,89.97729 -1.78031,5.22297"
         id="path7-2" /><path
         style="fill:none;stroke:#ffffff;stroke-width:2.5;stroke-linecap:round;stroke-dasharray:none"
         d="m 90.51044,105.40889 c 0,0 -4.60792,-0.0878 -6.9081,2.39639"
         id="path8-7" /><path
         style="fill:none;stroke:#ffffff;stroke-width:2.5;stroke-linecap:round;stroke-dasharray:none"
         d="m 93.92414,91.98468 c 0,0 -3.14522,-4.60505 -3.78928,-6.62922"
         id="path9-6" /><path
         style="fill:none;stroke:#ffffff;stroke-width:2.5;stroke-linecap:round;stroke-dasharray:none"
         d="m 130.47244,94.0424 c 0,0 4.38477,19.55254 -13.92808,30.78085"
         id="path10-1" /><path
         style="fill:none;stroke:#ffffff;stroke-width:2.5;stroke-linecap:round;stroke-dasharray:none"
         d="m 119.46379,122.82407 c -0.45121,0 -8.00544,-5.9189 -10.28827,-14.45165 -1.17926,-4.40783 0.27816,-7.74507 4.51373,-7.28814 1.64204,0.17714 4.73248,1.69292 7.2681,3.36272 0,0 3.58829,-1.97816 4.14034,-1.33411"
         id="path11-4"
         sodipodi:nodetypes="csscc" /><path
         style="fill:none;stroke:#ffffff;stroke-width:2.5;stroke-linecap:round;stroke-dasharray:none"
         d="m 126.50288,131.08713 c 0,0 0.0358,-2.56728 0.23018,-4.9269 0.24459,-2.96959 -0.43869,-4.19905 2.70656,-5.1363 1.33396,-0.39751 2.80205,-0.24561 3.11067,-0.24561"
         id="path13-2"
         sodipodi:nodetypes="cssc" /><path
         style="fill:none;stroke:#ffffff;stroke-width:2.5;stroke-linecap:round;stroke-dasharray:none"
         d="m 147.10822,129.46185 c 0,0 7.06382,-3.07107 3.29151,-9.87962 l -3.03624,-3.58829"
         id="path14-3" /><path
         style="fill:none;stroke:#ffffff;stroke-width:2.5;stroke-linecap:round;stroke-dasharray:none"
         d="m 147.01616,160.83244 c 0,0 -2.13687,6.40964 -3.42498,9.07785 -1.2881,2.66822 -0.55204,6.71655 2.4842,8.6487"
         id="path16-2" /><path
         style="fill:none;stroke:#ffffff;stroke-width:2.5;stroke-linecap:round;stroke-dasharray:none"
         d="m 163.50646,158.47521 c 0,0 7.22692,10.79103 4.5587,17.13954 -2.66822,6.34852 -6.6001,1.62519 -6.6001,1.62519"
         id="path17-1" /><path
         style="fill:none;stroke:#ffffff;stroke-width:2.5;stroke-linecap:round;stroke-dasharray:none"
         d="m 151.31981,183.06736 c 0,0 -10.39684,16.83736 2.20817,29.25836 0,0 6.99257,-3.77231 4.50837,-14.07714 0,0 6.90056,0.092 4.9684,-6.62453 -1.93216,-6.71655 -2.11617,-11.68495 -2.11617,-11.68495"
         id="path18-6" /><path
         style="fill:none;stroke:#ffffff;stroke-width:2.5;stroke-linecap:round;stroke-dasharray:none"
         d="m 150.44803,174.48546 c 0,0 11.01032,-3.21958 3.17196,-10.09561"
         id="path19-8" /><path
         style="fill:none;stroke:#ffffff;stroke-width:2.5;stroke-linecap:round;stroke-dasharray:none"
         d="m 134.73853,138.97357 c 0,0 -2.46426,5.45066 -8.81277,6.00271 0,0 -1.01209,2.57621 -2.85224,2.85223 0,0 -4.90306,-1.73128 -7.17578,-9.40552 -1.10531,-2.92457 -0.68526,-5.84386 -0.48908,-8.87588 0.16232,-2.54526 0.30137,-5.13092 0.19988,-5.17898"
         id="path20-5"
         sodipodi:nodetypes="cccssc" /><path
         style="fill:none;stroke:#ffffff;stroke-width:2.5;stroke-linecap:round;stroke-dasharray:none"
         d="m 137.70816,98.049 c 0,0 2.02175,-0.30852 4.19023,-0.70857 3.61903,-0.92976 6.81963,-1.71491 10.57545,-1.27908 3.97581,0.5208 8.89675,2.04908 10.80693,5.48742 0,0 -0.27602,2.39219 -2.30018,3.6803 0,0 0.27602,4.9684 -1.65614,7.54461"
         id="path22-6"
         sodipodi:nodetypes="cssccc" /><path
         style="fill:none;stroke:#ffffff;stroke-width:2.5;stroke-linecap:round;stroke-dasharray:none"
         d="m 152.05587,147.27647 c 0,0 -1.87677,-20.2144 -14.16915,-29.53439"
         id="path23-1"
         sodipodi:nodetypes="cc" /><path
         style="fill:none;stroke:#ffffff;stroke-width:2.5;stroke-linecap:round;stroke-dasharray:none"
         d="m 152.05587,147.27647 c 0,0 -3.40428,-7.08458 -7.26859,-9.93681 -3.86431,-2.85223 -6.07249,-4.60037 -6.1645,-8.09665 -0.092,-3.49628 0.73606,-8.09665 -0.73606,-11.50093"
         id="path24-8" /><path
         style="fill:none;stroke:#ffffff;stroke-width:2.5;stroke-linecap:round;stroke-dasharray:none"
         d="m 140.37582,99.915629 c 0,0 -2.39795,0.580891 -3.14835,2.798791 -1.10566,3.26789 -0.0642,5.77041 1.76412,7.06957 1.47362,1.04713 3.36723,1.19854 5.76158,1.21617 3.22234,0.0237 6.16374,-0.50767 6.42013,-0.16272"
         id="path25"
         sodipodi:nodetypes="csssc" /><path
         style="fill:none;stroke:#ffffff;stroke-width:2.5;stroke-linecap:round;stroke-dasharray:none"
         d="m 136.13119,140.66085 c 0,0 3.29042,-1.82477 3.42054,-2.08501"
         id="path26" /><path
         style="fill:none;stroke:#ffffff;stroke-width:2.5;stroke-linecap:round;stroke-dasharray:none"
         d="m 160.92112,132.27394 c 0,0 -3.93356,0.0562 -5.16968,4.28507"
         id="path27" /><path
         style="fill:none;stroke:#ffffff;stroke-width:2.5;stroke-linecap:round;stroke-dasharray:none"
         d="m 163.49532,151.32956 c 0,0 -6.57282,-1.30332 -7.61376,-8.85018"
         id="path28"
         sodipodi:nodetypes="cc" /></g></g></svg>
